<svg id="svg" version="1.1" width="400" height="398.96907216494844" xmlns="http://www.w3.org/2000/svg" xmlns:xlink="http://www.w3.org/1999/xlink" style="display: block;"><g id="svgg"><path id="path0" d="M0.000 54.894 L 0.000 109.788 19.261 109.684 L 38.523 109.581 38.625 73.555 L 38.727 37.529 74.753 37.427 L 110.778 37.325 110.882 18.663 L 110.986 0.000 55.493 0.000 L 0.000 0.000 0.000 54.894 M144.910 18.762 L 144.910 37.525 163.872 37.525 L 182.834 37.525 182.834 18.762 L 182.834 0.000 163.872 0.000 L 144.910 0.000 144.910 18.762 M217.166 18.164 C 217.166 30.007,217.305 36.327,217.565 36.327 C 217.784 36.327,217.964 36.599,217.964 36.930 C 217.964 37.460,220.248 37.520,237.026 37.429 L 256.088 37.325 256.192 18.663 L 256.295 0.000 236.730 0.000 L 217.166 0.000 217.166 18.164 M290.220 18.762 L 290.220 37.525 326.347 37.525 L 362.475 37.525 362.475 73.653 L 362.475 109.780 381.238 109.780 L 400.000 109.780 400.000 54.890 L 400.000 0.000 345.110 0.000 L 290.220 0.000 290.220 18.762 M0.627 144.340 C 0.075 144.892,0.000 147.184,0.000 163.502 L 0.000 182.036 19.361 182.036 L 38.723 182.036 38.716 163.772 L 38.709 145.509 37.761 144.611 L 36.814 143.713 19.034 143.713 C 3.403 143.713,1.179 143.788,0.627 144.340 M363.373 143.994 L 362.475 144.167 362.475 163.102 L 362.475 182.036 381.238 182.036 L 400.000 182.036 400.000 162.874 L 400.000 143.713 382.136 143.767 C 372.310 143.797,363.867 143.899,363.373 143.994 M132.535 160.878 C 132.535 161.098,132.086 161.277,131.537 161.277 C 130.916 161.277,130.539 161.504,130.539 161.876 C 130.539 162.249,130.162 162.475,129.541 162.475 C 128.920 162.475,128.543 162.701,128.543 163.074 C 128.543 163.403,128.273 163.673,127.944 163.673 C 127.615 163.673,127.345 163.852,127.345 164.072 C 127.345 164.291,126.896 164.471,126.347 164.471 C 125.726 164.471,125.349 164.697,125.349 165.070 C 125.349 165.399,125.145 165.669,124.894 165.669 C 124.223 165.669,123.381 166.934,123.366 167.964 C 123.359 168.458,123.161 168.862,122.926 168.862 C 122.145 168.862,121.311 170.033,121.081 171.453 C 120.956 172.224,120.697 172.854,120.507 172.854 C 120.316 172.854,120.160 174.182,120.160 175.806 C 120.160 178.066,120.019 178.811,119.558 178.988 C 119.029 179.191,118.969 182.762,119.059 208.871 L 119.162 238.523 127.117 238.631 C 133.214 238.715,135.147 238.621,135.394 238.232 C 135.571 237.953,135.719 224.296,135.722 207.884 C 135.726 188.261,135.865 178.044,136.128 178.044 C 136.347 178.044,136.527 177.774,136.527 177.445 C 136.527 177.116,136.796 176.846,137.126 176.846 C 137.455 176.846,137.725 176.667,137.725 176.447 C 137.725 176.187,144.178 176.048,156.287 176.048 C 168.397 176.048,174.850 176.187,174.850 176.447 C 174.850 176.667,175.299 176.846,175.848 176.846 C 176.469 176.846,176.846 177.073,176.846 177.445 C 176.846 177.774,177.026 178.044,177.246 178.044 C 178.219 178.044,180.838 181.255,180.838 182.448 C 180.838 183.155,181.087 183.753,181.437 183.888 C 181.933 184.078,182.036 185.164,182.036 190.220 C 182.036 195.275,181.933 196.361,181.437 196.552 C 181.108 196.678,180.833 197.101,180.826 197.492 C 180.810 198.366,179.915 199.601,179.297 199.601 C 179.047 199.601,178.842 199.793,178.842 200.029 C 178.842 200.581,177.827 201.597,177.274 201.597 C 177.039 201.597,176.846 201.866,176.846 202.196 C 176.846 202.628,176.403 202.794,175.250 202.794 C 174.371 202.794,173.653 202.972,173.653 203.189 C 173.653 203.442,167.371 203.622,156.188 203.688 L 138.723 203.792 138.614 211.477 L 138.506 219.162 158.674 219.162 C 171.693 219.162,178.842 219.022,178.842 218.767 C 178.842 218.550,179.561 218.258,180.439 218.117 C 181.317 217.977,182.036 217.705,182.036 217.514 C 182.036 217.322,182.485 217.166,183.034 217.166 C 183.655 217.166,184.032 216.939,184.032 216.567 C 184.032 216.194,184.409 215.968,185.030 215.968 C 185.579 215.968,186.028 215.788,186.028 215.569 C 186.028 215.349,186.477 215.170,187.026 215.170 C 187.647 215.170,188.024 214.943,188.024 214.571 C 188.024 214.242,188.216 213.972,188.452 213.972 C 189.004 213.972,190.020 212.956,190.020 212.404 C 190.020 212.169,190.289 211.976,190.619 211.976 C 190.948 211.976,191.218 211.707,191.218 211.377 C 191.218 211.048,191.410 210.778,191.645 210.778 C 192.198 210.778,193.214 209.763,193.214 209.210 C 193.214 208.975,193.483 208.782,193.812 208.782 C 194.185 208.782,194.411 208.405,194.411 207.784 C 194.411 207.236,194.591 206.786,194.810 206.786 C 195.030 206.786,195.210 206.337,195.210 205.788 C 195.210 205.167,195.436 204.790,195.808 204.790 C 196.229 204.790,196.407 204.366,196.407 203.365 C 196.407 202.581,196.677 201.670,197.006 201.340 C 197.438 200.909,197.605 199.857,197.605 197.576 C 197.605 195.732,197.771 194.411,198.004 194.411 C 198.247 194.411,198.403 192.615,198.403 189.820 C 198.403 187.295,198.242 185.230,198.045 185.230 C 197.848 185.230,197.623 183.672,197.545 181.769 C 197.450 179.469,197.236 178.254,196.905 178.143 C 196.631 178.052,196.407 177.543,196.407 177.013 C 196.407 176.421,196.175 176.048,195.808 176.048 C 195.376 176.048,195.210 175.604,195.210 174.451 C 195.210 173.573,195.030 172.854,194.810 172.854 C 194.591 172.854,194.411 172.585,194.411 172.255 C 194.411 171.926,194.142 171.657,193.812 171.657 C 193.476 171.657,193.214 171.300,193.214 170.845 C 193.214 170.029,191.126 167.665,190.405 167.665 C 190.193 167.665,190.020 167.472,190.020 167.237 C 190.020 166.684,189.004 165.669,188.452 165.669 C 188.216 165.669,188.024 165.464,188.024 165.214 C 188.024 164.614,186.798 163.701,185.971 163.685 C 185.610 163.678,185.212 163.403,185.085 163.074 C 184.959 162.745,184.420 162.475,183.888 162.475 C 183.355 162.475,182.816 162.206,182.690 161.876 C 182.557 161.530,181.960 161.277,181.274 161.277 C 180.621 161.277,179.976 161.098,179.840 160.878 C 179.680 160.619,171.320 160.479,156.064 160.479 C 140.644 160.479,132.535 160.617,132.535 160.878 M221.158 160.878 C 221.158 161.098,220.523 161.277,219.748 161.277 C 218.863 161.277,218.253 161.500,218.108 161.876 C 217.982 162.206,217.449 162.475,216.923 162.475 C 216.340 162.475,215.968 162.708,215.968 163.074 C 215.968 163.446,215.591 163.673,214.970 163.673 C 214.421 163.673,213.972 163.852,213.972 164.072 C 213.972 164.291,213.703 164.471,213.373 164.471 C 213.044 164.471,212.774 164.664,212.774 164.899 C 212.774 165.451,211.759 166.467,211.206 166.467 C 210.971 166.467,210.778 166.737,210.778 167.066 C 210.778 167.395,210.599 167.665,210.379 167.665 C 210.160 167.665,209.980 167.934,209.980 168.263 C 209.980 168.593,209.711 168.862,209.381 168.862 C 209.009 168.862,208.782 169.239,208.782 169.860 C 208.782 170.481,208.556 170.858,208.184 170.858 C 207.811 170.858,207.585 171.235,207.585 171.856 C 207.585 172.405,207.405 172.854,207.186 172.854 C 206.966 172.854,206.786 173.284,206.786 173.810 C 206.786 174.335,206.517 174.868,206.188 174.995 C 205.720 175.174,205.589 175.971,205.589 178.630 C 205.589 180.635,205.425 182.036,205.190 182.036 C 204.970 182.036,204.790 182.754,204.790 183.633 C 204.790 184.511,204.970 185.230,205.190 185.230 C 205.420 185.230,205.589 186.494,205.589 188.224 C 205.589 190.619,205.709 191.218,206.188 191.218 C 206.620 191.218,206.786 191.661,206.786 192.814 C 206.786 193.693,206.966 194.411,207.186 194.411 C 207.405 194.411,207.585 194.860,207.585 195.409 C 207.585 196.030,207.811 196.407,208.184 196.407 C 208.556 196.407,208.782 196.784,208.782 197.405 C 208.782 198.026,209.009 198.403,209.381 198.403 C 209.711 198.403,209.980 198.591,209.980 198.821 C 209.980 199.495,213.424 202.794,214.128 202.794 C 214.481 202.794,214.770 202.974,214.770 203.194 C 214.770 203.413,215.021 203.593,215.327 203.593 C 215.632 203.593,215.986 203.862,216.112 204.192 C 216.257 204.567,216.867 204.790,217.752 204.790 C 218.527 204.790,219.162 204.970,219.162 205.190 C 219.162 205.409,219.880 205.589,220.758 205.589 C 221.912 205.589,222.355 205.755,222.355 206.188 C 222.355 206.712,224.795 206.786,241.916 206.786 C 259.037 206.786,261.477 206.861,261.477 207.385 C 261.477 207.803,261.898 207.984,262.874 207.984 C 263.643 207.984,264.271 208.164,264.271 208.383 C 264.271 208.603,264.541 208.782,264.870 208.782 C 265.200 208.782,265.469 209.052,265.469 209.381 C 265.469 209.711,265.739 209.980,266.068 209.980 C 266.440 209.980,266.667 210.357,266.667 210.978 C 266.667 211.527,266.846 211.976,267.066 211.976 C 268.052 211.976,267.522 218.131,266.467 218.923 C 265.918 219.335,265.469 220.007,265.469 220.415 C 265.469 220.941,265.178 221.158,264.471 221.158 C 263.850 221.158,263.473 221.384,263.473 221.756 C 263.473 222.283,259.991 222.355,234.531 222.355 L 205.589 222.355 205.589 230.539 L 205.589 238.723 234.531 238.723 C 253.560 238.723,263.473 238.586,263.473 238.323 C 263.473 238.101,264.542 237.924,265.881 237.924 C 267.653 237.924,268.349 237.766,268.518 237.325 C 268.645 236.996,269.178 236.727,269.703 236.727 C 270.286 236.727,270.659 236.493,270.659 236.128 C 270.659 235.755,271.036 235.529,271.657 235.529 C 272.206 235.529,272.655 235.349,272.655 235.130 C 272.655 234.910,273.104 234.731,273.653 234.731 C 274.274 234.731,274.651 234.504,274.651 234.132 C 274.651 233.802,274.843 233.533,275.078 233.533 C 275.631 233.533,276.647 232.517,276.647 231.965 C 276.647 231.729,276.820 231.537,277.032 231.537 C 277.752 231.537,279.840 229.172,279.840 228.357 C 279.840 227.901,280.103 227.545,280.439 227.545 C 280.812 227.545,281.038 227.168,281.038 226.547 C 281.038 225.998,281.218 225.549,281.437 225.549 C 281.657 225.549,281.836 225.010,281.836 224.351 C 281.836 223.553,282.036 223.154,282.435 223.154 C 282.948 223.154,283.034 221.978,283.034 214.970 C 283.034 207.962,282.948 206.786,282.435 206.786 C 282.019 206.786,281.836 206.368,281.836 205.413 C 281.836 204.657,281.657 203.928,281.437 203.792 C 281.218 203.657,281.038 203.222,281.038 202.827 C 281.038 202.431,280.589 201.771,280.040 201.358 C 279.491 200.946,279.042 200.382,279.042 200.105 C 279.042 199.828,278.772 199.601,278.443 199.601 C 278.071 199.601,277.844 199.224,277.844 198.603 C 277.844 197.804,277.645 197.605,276.846 197.605 C 276.225 197.605,275.848 197.379,275.848 197.006 C 275.848 196.677,275.621 196.407,275.344 196.407 C 275.067 196.407,274.503 195.958,274.091 195.409 C 273.662 194.838,272.938 194.411,272.399 194.411 C 271.881 194.411,271.457 194.232,271.457 194.012 C 271.457 193.792,271.008 193.613,270.459 193.613 C 269.838 193.613,269.461 193.387,269.461 193.014 C 269.461 192.562,268.973 192.415,267.465 192.415 C 265.957 192.415,265.469 192.269,265.469 191.816 C 265.469 191.292,263.029 191.218,245.908 191.218 C 233.134 191.218,226.347 191.079,226.347 190.818 C 226.347 190.599,225.898 190.419,225.349 190.419 C 224.728 190.419,224.351 190.193,224.351 189.820 C 224.351 189.491,224.148 189.222,223.899 189.222 C 223.307 189.222,221.956 187.653,221.956 186.965 C 221.956 186.669,221.776 186.427,221.557 186.427 C 221.326 186.427,221.158 185.154,221.158 183.407 L 221.158 180.387 223.359 178.220 L 225.561 176.054 251.004 175.951 L 276.447 175.848 276.556 168.164 L 276.664 160.479 248.911 160.479 C 230.675 160.479,221.158 160.616,221.158 160.878 M0.000 235.700 C 0.000 252.017,0.075 254.309,0.627 254.862 C 1.179 255.413,3.402 255.488,19.090 255.482 L 36.926 255.475 37.824 254.528 L 38.723 253.580 38.723 235.373 L 38.723 217.166 19.361 217.166 L 0.000 217.166 0.000 235.700 M362.475 236.078 L 362.475 254.990 363.723 255.240 C 364.409 255.377,372.852 255.489,382.485 255.489 L 400.000 255.489 400.000 236.327 L 400.000 217.166 381.238 217.166 L 362.475 217.166 362.475 236.078 M-0.000 344.308 L 0.000 399.202 55.493 399.202 L 110.986 399.202 110.882 380.539 L 110.778 361.876 74.753 361.774 L 38.727 361.672 38.625 325.647 L 38.523 289.621 19.261 289.517 L -0.000 289.413 -0.000 344.308 M362.475 325.549 L 362.475 361.677 326.347 361.677 L 290.220 361.677 290.220 380.439 L 290.220 399.202 345.110 399.202 L 400.000 399.202 400.000 344.311 L 400.000 289.421 381.238 289.421 L 362.475 289.421 362.475 325.549 M144.910 380.439 L 144.910 399.202 163.872 399.202 L 182.834 399.202 182.834 380.439 L 182.834 361.677 163.872 361.677 L 144.910 361.677 144.910 380.439 M217.964 362.272 C 217.964 362.603,217.784 362.874,217.565 362.874 C 217.305 362.874,217.166 369.195,217.166 381.038 L 217.166 399.202 236.730 399.202 L 256.295 399.202 256.192 380.539 L 256.088 361.876 237.026 361.773 C 220.248 361.681,217.964 361.741,217.964 362.272 " stroke="none" fill="#ffffff" fill-rule="evenodd"></path><path id="path1" d="M0.000 54.894 L 0.000 109.788 19.261 109.684 L 38.523 109.581 38.625 73.555 L 38.727 37.529 74.753 37.427 L 110.778 37.325 110.882 18.663 L 110.986 0.000 55.493 0.000 L 0.000 0.000 0.000 54.894 M144.910 18.762 L 144.910 37.525 163.872 37.525 L 182.834 37.525 182.834 18.762 L 182.834 0.000 163.872 0.000 L 144.910 0.000 144.910 18.762 M217.166 18.164 C 217.166 30.007,217.305 36.327,217.565 36.327 C 217.784 36.327,217.964 36.599,217.964 36.930 C 217.964 37.460,220.248 37.520,237.026 37.429 L 256.088 37.325 256.192 18.663 L 256.295 0.000 236.730 0.000 L 217.166 0.000 217.166 18.164 M290.220 18.762 L 290.220 37.525 326.347 37.525 L 362.475 37.525 362.475 73.653 L 362.475 109.780 381.238 109.780 L 400.000 109.780 400.000 54.890 L 400.000 0.000 345.110 0.000 L 290.220 0.000 290.220 18.762 M0.627 144.340 C 0.075 144.892,0.000 147.184,0.000 163.502 L 0.000 182.036 19.361 182.036 L 38.723 182.036 38.716 163.772 L 38.709 145.509 37.761 144.611 L 36.814 143.713 19.034 143.713 C 3.403 143.713,1.179 143.788,0.627 144.340 M363.373 143.994 L 362.475 144.167 362.475 163.102 L 362.475 182.036 381.238 182.036 L 400.000 182.036 400.000 162.874 L 400.000 143.713 382.136 143.767 C 372.310 143.797,363.867 143.899,363.373 143.994 M132.535 160.878 C 132.535 161.098,132.086 161.277,131.537 161.277 C 130.916 161.277,130.539 161.504,130.539 161.876 C 130.539 162.249,130.162 162.475,129.541 162.475 C 128.920 162.475,128.543 162.701,128.543 163.074 C 128.543 163.403,128.273 163.673,127.944 163.673 C 127.615 163.673,127.345 163.852,127.345 164.072 C 127.345 164.291,126.896 164.471,126.347 164.471 C 125.726 164.471,125.349 164.697,125.349 165.070 C 125.349 165.399,125.145 165.669,124.894 165.669 C 124.223 165.669,123.381 166.934,123.366 167.964 C 123.359 168.458,123.161 168.862,122.926 168.862 C 122.145 168.862,121.311 170.033,121.081 171.453 C 120.956 172.224,120.697 172.854,120.507 172.854 C 120.316 172.854,120.160 174.182,120.160 175.806 C 120.160 178.066,120.019 178.811,119.558 178.988 C 119.029 179.191,118.969 182.762,119.059 208.871 L 119.162 238.523 127.117 238.631 C 133.214 238.715,135.147 238.621,135.394 238.232 C 135.571 237.953,135.719 224.296,135.722 207.884 C 135.726 188.261,135.865 178.044,136.128 178.044 C 136.347 178.044,136.527 177.774,136.527 177.445 C 136.527 177.116,136.796 176.846,137.126 176.846 C 137.455 176.846,137.725 176.667,137.725 176.447 C 137.725 176.187,144.178 176.048,156.287 176.048 C 168.397 176.048,174.850 176.187,174.850 176.447 C 174.850 176.667,175.299 176.846,175.848 176.846 C 176.469 176.846,176.846 177.073,176.846 177.445 C 176.846 177.774,177.026 178.044,177.246 178.044 C 178.219 178.044,180.838 181.255,180.838 182.448 C 180.838 183.155,181.087 183.753,181.437 183.888 C 181.933 184.078,182.036 185.164,182.036 190.220 C 182.036 195.275,181.933 196.361,181.437 196.552 C 181.108 196.678,180.833 197.101,180.826 197.492 C 180.810 198.366,179.915 199.601,179.297 199.601 C 179.047 199.601,178.842 199.793,178.842 200.029 C 178.842 200.581,177.827 201.597,177.274 201.597 C 177.039 201.597,176.846 201.866,176.846 202.196 C 176.846 202.628,176.403 202.794,175.250 202.794 C 174.371 202.794,173.653 202.972,173.653 203.189 C 173.653 203.442,167.371 203.622,156.188 203.688 L 138.723 203.792 138.614 211.477 L 138.506 219.162 158.674 219.162 C 171.693 219.162,178.842 219.022,178.842 218.767 C 178.842 218.550,179.561 218.258,180.439 218.117 C 181.317 217.977,182.036 217.705,182.036 217.514 C 182.036 217.322,182.485 217.166,183.034 217.166 C 183.655 217.166,184.032 216.939,184.032 216.567 C 184.032 216.194,184.409 215.968,185.030 215.968 C 185.579 215.968,186.028 215.788,186.028 215.569 C 186.028 215.349,186.477 215.170,187.026 215.170 C 187.647 215.170,188.024 214.943,188.024 214.571 C 188.024 214.242,188.216 213.972,188.452 213.972 C 189.004 213.972,190.020 212.956,190.020 212.404 C 190.020 212.169,190.289 211.976,190.619 211.976 C 190.948 211.976,191.218 211.707,191.218 211.377 C 191.218 211.048,191.410 210.778,191.645 210.778 C 192.198 210.778,193.214 209.763,193.214 209.210 C 193.214 208.975,193.483 208.782,193.812 208.782 C 194.185 208.782,194.411 208.405,194.411 207.784 C 194.411 207.236,194.591 206.786,194.810 206.786 C 195.030 206.786,195.210 206.337,195.210 205.788 C 195.210 205.167,195.436 204.790,195.808 204.790 C 196.229 204.790,196.407 204.366,196.407 203.365 C 196.407 202.581,196.677 201.670,197.006 201.340 C 197.438 200.909,197.605 199.857,197.605 197.576 C 197.605 195.732,197.771 194.411,198.004 194.411 C 198.247 194.411,198.403 192.615,198.403 189.820 C 198.403 187.295,198.242 185.230,198.045 185.230 C 197.848 185.230,197.623 183.672,197.545 181.769 C 197.450 179.469,197.236 178.254,196.905 178.143 C 196.631 178.052,196.407 177.543,196.407 177.013 C 196.407 176.421,196.175 176.048,195.808 176.048 C 195.376 176.048,195.210 175.604,195.210 174.451 C 195.210 173.573,195.030 172.854,194.810 172.854 C 194.591 172.854,194.411 172.585,194.411 172.255 C 194.411 171.926,194.142 171.657,193.812 171.657 C 193.476 171.657,193.214 171.300,193.214 170.845 C 193.214 170.029,191.126 167.665,190.405 167.665 C 190.193 167.665,190.020 167.472,190.020 167.237 C 190.020 166.684,189.004 165.669,188.452 165.669 C 188.216 165.669,188.024 165.464,188.024 165.214 C 188.024 164.614,186.798 163.701,185.971 163.685 C 185.610 163.678,185.212 163.403,185.085 163.074 C 184.959 162.745,184.420 162.475,183.888 162.475 C 183.355 162.475,182.816 162.206,182.690 161.876 C 182.557 161.530,181.960 161.277,181.274 161.277 C 180.621 161.277,179.976 161.098,179.840 160.878 C 179.680 160.619,171.320 160.479,156.064 160.479 C 140.644 160.479,132.535 160.617,132.535 160.878 M221.158 160.878 C 221.158 161.098,220.523 161.277,219.748 161.277 C 218.863 161.277,218.253 161.500,218.108 161.876 C 217.982 162.206,217.449 162.475,216.923 162.475 C 216.340 162.475,215.968 162.708,215.968 163.074 C 215.968 163.446,215.591 163.673,214.970 163.673 C 214.421 163.673,213.972 163.852,213.972 164.072 C 213.972 164.291,213.703 164.471,213.373 164.471 C 213.044 164.471,212.774 164.664,212.774 164.899 C 212.774 165.451,211.759 166.467,211.206 166.467 C 210.971 166.467,210.778 166.737,210.778 167.066 C 210.778 167.395,210.599 167.665,210.379 167.665 C 210.160 167.665,209.980 167.934,209.980 168.263 C 209.980 168.593,209.711 168.862,209.381 168.862 C 209.009 168.862,208.782 169.239,208.782 169.860 C 208.782 170.481,208.556 170.858,208.184 170.858 C 207.811 170.858,207.585 171.235,207.585 171.856 C 207.585 172.405,207.405 172.854,207.186 172.854 C 206.966 172.854,206.786 173.284,206.786 173.810 C 206.786 174.335,206.517 174.868,206.188 174.995 C 205.720 175.174,205.589 175.971,205.589 178.630 C 205.589 180.635,205.425 182.036,205.190 182.036 C 204.970 182.036,204.790 182.754,204.790 183.633 C 204.790 184.511,204.970 185.230,205.190 185.230 C 205.420 185.230,205.589 186.494,205.589 188.224 C 205.589 190.619,205.709 191.218,206.188 191.218 C 206.620 191.218,206.786 191.661,206.786 192.814 C 206.786 193.693,206.966 194.411,207.186 194.411 C 207.405 194.411,207.585 194.860,207.585 195.409 C 207.585 196.030,207.811 196.407,208.184 196.407 C 208.556 196.407,208.782 196.784,208.782 197.405 C 208.782 198.026,209.009 198.403,209.381 198.403 C 209.711 198.403,209.980 198.591,209.980 198.821 C 209.980 199.495,213.424 202.794,214.128 202.794 C 214.481 202.794,214.770 202.974,214.770 203.194 C 214.770 203.413,215.021 203.593,215.327 203.593 C 215.632 203.593,215.986 203.862,216.112 204.192 C 216.257 204.567,216.867 204.790,217.752 204.790 C 218.527 204.790,219.162 204.970,219.162 205.190 C 219.162 205.409,219.880 205.589,220.758 205.589 C 221.912 205.589,222.355 205.755,222.355 206.188 C 222.355 206.712,224.795 206.786,241.916 206.786 C 259.037 206.786,261.477 206.861,261.477 207.385 C 261.477 207.803,261.898 207.984,262.874 207.984 C 263.643 207.984,264.271 208.164,264.271 208.383 C 264.271 208.603,264.541 208.782,264.870 208.782 C 265.200 208.782,265.469 209.052,265.469 209.381 C 265.469 209.711,265.739 209.980,266.068 209.980 C 266.440 209.980,266.667 210.357,266.667 210.978 C 266.667 211.527,266.846 211.976,267.066 211.976 C 268.052 211.976,267.522 218.131,266.467 218.923 C 265.918 219.335,265.469 220.007,265.469 220.415 C 265.469 220.941,265.178 221.158,264.471 221.158 C 263.850 221.158,263.473 221.384,263.473 221.756 C 263.473 222.283,259.991 222.355,234.531 222.355 L 205.589 222.355 205.589 230.539 L 205.589 238.723 234.531 238.723 C 253.560 238.723,263.473 238.586,263.473 238.323 C 263.473 238.101,264.542 237.924,265.881 237.924 C 267.653 237.924,268.349 237.766,268.518 237.325 C 268.645 236.996,269.178 236.727,269.703 236.727 C 270.286 236.727,270.659 236.493,270.659 236.128 C 270.659 235.755,271.036 235.529,271.657 235.529 C 272.206 235.529,272.655 235.349,272.655 235.130 C 272.655 234.910,273.104 234.731,273.653 234.731 C 274.274 234.731,274.651 234.504,274.651 234.132 C 274.651 233.802,274.843 233.533,275.078 233.533 C 275.631 233.533,276.647 232.517,276.647 231.965 C 276.647 231.729,276.820 231.537,277.032 231.537 C 277.752 231.537,279.840 229.172,279.840 228.357 C 279.840 227.901,280.103 227.545,280.439 227.545 C 280.812 227.545,281.038 227.168,281.038 226.547 C 281.038 225.998,281.218 225.549,281.437 225.549 C 281.657 225.549,281.836 225.010,281.836 224.351 C 281.836 223.553,282.036 223.154,282.435 223.154 C 282.948 223.154,283.034 221.978,283.034 214.970 C 283.034 207.962,282.948 206.786,282.435 206.786 C 282.019 206.786,281.836 206.368,281.836 205.413 C 281.836 204.657,281.657 203.928,281.437 203.792 C 281.218 203.657,281.038 203.222,281.038 202.827 C 281.038 202.431,280.589 201.771,280.040 201.358 C 279.491 200.946,279.042 200.382,279.042 200.105 C 279.042 199.828,278.772 199.601,278.443 199.601 C 278.071 199.601,277.844 199.224,277.844 198.603 C 277.844 197.804,277.645 197.605,276.846 197.605 C 276.225 197.605,275.848 197.379,275.848 197.006 C 275.848 196.677,275.621 196.407,275.344 196.407 C 275.067 196.407,274.503 195.958,274.091 195.409 C 273.662 194.838,272.938 194.411,272.399 194.411 C 271.881 194.411,271.457 194.232,271.457 194.012 C 271.457 193.792,271.008 193.613,270.459 193.613 C 269.838 193.613,269.461 193.387,269.461 193.014 C 269.461 192.562,268.973 192.415,267.465 192.415 C 265.957 192.415,265.469 192.269,265.469 191.816 C 265.469 191.292,263.029 191.218,245.908 191.218 C 233.134 191.218,226.347 191.079,226.347 190.818 C 226.347 190.599,225.898 190.419,225.349 190.419 C 224.728 190.419,224.351 190.193,224.351 189.820 C 224.351 189.491,224.148 189.222,223.899 189.222 C 223.307 189.222,221.956 187.653,221.956 186.965 C 221.956 186.669,221.776 186.427,221.557 186.427 C 221.326 186.427,221.158 185.154,221.158 183.407 L 221.158 180.387 223.359 178.220 L 225.561 176.054 251.004 175.951 L 276.447 175.848 276.556 168.164 L 276.664 160.479 248.911 160.479 C 230.675 160.479,221.158 160.616,221.158 160.878 M0.000 235.700 C 0.000 252.017,0.075 254.309,0.627 254.862 C 1.179 255.413,3.402 255.488,19.090 255.482 L 36.926 255.475 37.824 254.528 L 38.723 253.580 38.723 235.373 L 38.723 217.166 19.361 217.166 L 0.000 217.166 0.000 235.700 M362.475 236.078 L 362.475 254.990 363.723 255.240 C 364.409 255.377,372.852 255.489,382.485 255.489 L 400.000 255.489 400.000 236.327 L 400.000 217.166 381.238 217.166 L 362.475 217.166 362.475 236.078 M-0.000 344.308 L 0.000 399.202 55.493 399.202 L 110.986 399.202 110.882 380.539 L 110.778 361.876 74.753 361.774 L 38.727 361.672 38.625 325.647 L 38.523 289.621 19.261 289.517 L -0.000 289.413 -0.000 344.308 M362.475 325.549 L 362.475 361.677 326.347 361.677 L 290.220 361.677 290.220 380.439 L 290.220 399.202 345.110 399.202 L 400.000 399.202 400.000 344.311 L 400.000 289.421 381.238 289.421 L 362.475 289.421 362.475 325.549 M144.910 380.439 L 144.910 399.202 163.872 399.202 L 182.834 399.202 182.834 380.439 L 182.834 361.677 163.872 361.677 L 144.910 361.677 144.910 380.439 M217.964 362.272 C 217.964 362.603,217.784 362.874,217.565 362.874 C 217.305 362.874,217.166 369.195,217.166 381.038 L 217.166 399.202 236.730 399.202 L 256.295 399.202 256.192 380.539 L 256.088 361.876 237.026 361.773 C 220.248 361.681,217.964 361.741,217.964 362.272 " stroke="none" fill="#ffffff" fill-rule="evenodd"></path><path id="path2" d="M0.000 54.894 L 0.000 109.788 19.261 109.684 L 38.523 109.581 38.625 73.555 L 38.727 37.529 74.753 37.427 L 110.778 37.325 110.882 18.663 L 110.986 0.000 55.493 0.000 L 0.000 0.000 0.000 54.894 M144.910 18.762 L 144.910 37.525 163.872 37.525 L 182.834 37.525 182.834 18.762 L 182.834 0.000 163.872 0.000 L 144.910 0.000 144.910 18.762 M217.166 18.164 C 217.166 30.007,217.305 36.327,217.565 36.327 C 217.784 36.327,217.964 36.599,217.964 36.930 C 217.964 37.460,220.248 37.520,237.026 37.429 L 256.088 37.325 256.192 18.663 L 256.295 0.000 236.730 0.000 L 217.166 0.000 217.166 18.164 M290.220 18.762 L 290.220 37.525 326.347 37.525 L 362.475 37.525 362.475 73.653 L 362.475 109.780 381.238 109.780 L 400.000 109.780 400.000 54.890 L 400.000 0.000 345.110 0.000 L 290.220 0.000 290.220 18.762 M0.627 144.340 C 0.075 144.892,0.000 147.184,0.000 163.502 L 0.000 182.036 19.361 182.036 L 38.723 182.036 38.716 163.772 L 38.709 145.509 37.761 144.611 L 36.814 143.713 19.034 143.713 C 3.403 143.713,1.179 143.788,0.627 144.340 M363.373 143.994 L 362.475 144.167 362.475 163.102 L 362.475 182.036 381.238 182.036 L 400.000 182.036 400.000 162.874 L 400.000 143.713 382.136 143.767 C 372.310 143.797,363.867 143.899,363.373 143.994 M132.535 160.878 C 132.535 161.098,132.086 161.277,131.537 161.277 C 130.916 161.277,130.539 161.504,130.539 161.876 C 130.539 162.249,130.162 162.475,129.541 162.475 C 128.920 162.475,128.543 162.701,128.543 163.074 C 128.543 163.403,128.273 163.673,127.944 163.673 C 127.615 163.673,127.345 163.852,127.345 164.072 C 127.345 164.291,126.896 164.471,126.347 164.471 C 125.726 164.471,125.349 164.697,125.349 165.070 C 125.349 165.399,125.145 165.669,124.894 165.669 C 124.223 165.669,123.381 166.934,123.366 167.964 C 123.359 168.458,123.161 168.862,122.926 168.862 C 122.145 168.862,121.311 170.033,121.081 171.453 C 120.956 172.224,120.697 172.854,120.507 172.854 C 120.316 172.854,120.160 174.182,120.160 175.806 C 120.160 178.066,120.019 178.811,119.558 178.988 C 119.029 179.191,118.969 182.762,119.059 208.871 L 119.162 238.523 127.117 238.631 C 133.214 238.715,135.147 238.621,135.394 238.232 C 135.571 237.953,135.719 224.296,135.722 207.884 C 135.726 188.261,135.865 178.044,136.128 178.044 C 136.347 178.044,136.527 177.774,136.527 177.445 C 136.527 177.116,136.796 176.846,137.126 176.846 C 137.455 176.846,137.725 176.667,137.725 176.447 C 137.725 176.187,144.178 176.048,156.287 176.048 C 168.397 176.048,174.850 176.187,174.850 176.447 C 174.850 176.667,175.299 176.846,175.848 176.846 C 176.469 176.846,176.846 177.073,176.846 177.445 C 176.846 177.774,177.026 178.044,177.246 178.044 C 178.219 178.044,180.838 181.255,180.838 182.448 C 180.838 183.155,181.087 183.753,181.437 183.888 C 181.933 184.078,182.036 185.164,182.036 190.220 C 182.036 195.275,181.933 196.361,181.437 196.552 C 181.108 196.678,180.833 197.101,180.826 197.492 C 180.810 198.366,179.915 199.601,179.297 199.601 C 179.047 199.601,178.842 199.793,178.842 200.029 C 178.842 200.581,177.827 201.597,177.274 201.597 C 177.039 201.597,176.846 201.866,176.846 202.196 C 176.846 202.628,176.403 202.794,175.250 202.794 C 174.371 202.794,173.653 202.972,173.653 203.189 C 173.653 203.442,167.371 203.622,156.188 203.688 L 138.723 203.792 138.614 211.477 L 138.506 219.162 158.674 219.162 C 171.693 219.162,178.842 219.022,178.842 218.767 C 178.842 218.550,179.561 218.258,180.439 218.117 C 181.317 217.977,182.036 217.705,182.036 217.514 C 182.036 217.322,182.485 217.166,183.034 217.166 C 183.655 217.166,184.032 216.939,184.032 216.567 C 184.032 216.194,184.409 215.968,185.030 215.968 C 185.579 215.968,186.028 215.788,186.028 215.569 C 186.028 215.349,186.477 215.170,187.026 215.170 C 187.647 215.170,188.024 214.943,188.024 214.571 C 188.024 214.242,188.216 213.972,188.452 213.972 C 189.004 213.972,190.020 212.956,190.020 212.404 C 190.020 212.169,190.289 211.976,190.619 211.976 C 190.948 211.976,191.218 211.707,191.218 211.377 C 191.218 211.048,191.410 210.778,191.645 210.778 C 192.198 210.778,193.214 209.763,193.214 209.210 C 193.214 208.975,193.483 208.782,193.812 208.782 C 194.185 208.782,194.411 208.405,194.411 207.784 C 194.411 207.236,194.591 206.786,194.810 206.786 C 195.030 206.786,195.210 206.337,195.210 205.788 C 195.210 205.167,195.436 204.790,195.808 204.790 C 196.229 204.790,196.407 204.366,196.407 203.365 C 196.407 202.581,196.677 201.670,197.006 201.340 C 197.438 200.909,197.605 199.857,197.605 197.576 C 197.605 195.732,197.771 194.411,198.004 194.411 C 198.247 194.411,198.403 192.615,198.403 189.820 C 198.403 187.295,198.242 185.230,198.045 185.230 C 197.848 185.230,197.623 183.672,197.545 181.769 C 197.450 179.469,197.236 178.254,196.905 178.143 C 196.631 178.052,196.407 177.543,196.407 177.013 C 196.407 176.421,196.175 176.048,195.808 176.048 C 195.376 176.048,195.210 175.604,195.210 174.451 C 195.210 173.573,195.030 172.854,194.810 172.854 C 194.591 172.854,194.411 172.585,194.411 172.255 C 194.411 171.926,194.142 171.657,193.812 171.657 C 193.476 171.657,193.214 171.300,193.214 170.845 C 193.214 170.029,191.126 167.665,190.405 167.665 C 190.193 167.665,190.020 167.472,190.020 167.237 C 190.020 166.684,189.004 165.669,188.452 165.669 C 188.216 165.669,188.024 165.464,188.024 165.214 C 188.024 164.614,186.798 163.701,185.971 163.685 C 185.610 163.678,185.212 163.403,185.085 163.074 C 184.959 162.745,184.420 162.475,183.888 162.475 C 183.355 162.475,182.816 162.206,182.690 161.876 C 182.557 161.530,181.960 161.277,181.274 161.277 C 180.621 161.277,179.976 161.098,179.840 160.878 C 179.680 160.619,171.320 160.479,156.064 160.479 C 140.644 160.479,132.535 160.617,132.535 160.878 M221.158 160.878 C 221.158 161.098,220.523 161.277,219.748 161.277 C 218.863 161.277,218.253 161.500,218.108 161.876 C 217.982 162.206,217.449 162.475,216.923 162.475 C 216.340 162.475,215.968 162.708,215.968 163.074 C 215.968 163.446,215.591 163.673,214.970 163.673 C 214.421 163.673,213.972 163.852,213.972 164.072 C 213.972 164.291,213.703 164.471,213.373 164.471 C 213.044 164.471,212.774 164.664,212.774 164.899 C 212.774 165.451,211.759 166.467,211.206 166.467 C 210.971 166.467,210.778 166.737,210.778 167.066 C 210.778 167.395,210.599 167.665,210.379 167.665 C 210.160 167.665,209.980 167.934,209.980 168.263 C 209.980 168.593,209.711 168.862,209.381 168.862 C 209.009 168.862,208.782 169.239,208.782 169.860 C 208.782 170.481,208.556 170.858,208.184 170.858 C 207.811 170.858,207.585 171.235,207.585 171.856 C 207.585 172.405,207.405 172.854,207.186 172.854 C 206.966 172.854,206.786 173.284,206.786 173.810 C 206.786 174.335,206.517 174.868,206.188 174.995 C 205.720 175.174,205.589 175.971,205.589 178.630 C 205.589 180.635,205.425 182.036,205.190 182.036 C 204.970 182.036,204.790 182.754,204.790 183.633 C 204.790 184.511,204.970 185.230,205.190 185.230 C 205.420 185.230,205.589 186.494,205.589 188.224 C 205.589 190.619,205.709 191.218,206.188 191.218 C 206.620 191.218,206.786 191.661,206.786 192.814 C 206.786 193.693,206.966 194.411,207.186 194.411 C 207.405 194.411,207.585 194.860,207.585 195.409 C 207.585 196.030,207.811 196.407,208.184 196.407 C 208.556 196.407,208.782 196.784,208.782 197.405 C 208.782 198.026,209.009 198.403,209.381 198.403 C 209.711 198.403,209.980 198.591,209.980 198.821 C 209.980 199.495,213.424 202.794,214.128 202.794 C 214.481 202.794,214.770 202.974,214.770 203.194 C 214.770 203.413,215.021 203.593,215.327 203.593 C 215.632 203.593,215.986 203.862,216.112 204.192 C 216.257 204.567,216.867 204.790,217.752 204.790 C 218.527 204.790,219.162 204.970,219.162 205.190 C 219.162 205.409,219.880 205.589,220.758 205.589 C 221.912 205.589,222.355 205.755,222.355 206.188 C 222.355 206.712,224.795 206.786,241.916 206.786 C 259.037 206.786,261.477 206.861,261.477 207.385 C 261.477 207.803,261.898 207.984,262.874 207.984 C 263.643 207.984,264.271 208.164,264.271 208.383 C 264.271 208.603,264.541 208.782,264.870 208.782 C 265.200 208.782,265.469 209.052,265.469 209.381 C 265.469 209.711,265.739 209.980,266.068 209.980 C 266.440 209.980,266.667 210.357,266.667 210.978 C 266.667 211.527,266.846 211.976,267.066 211.976 C 268.052 211.976,267.522 218.131,266.467 218.923 C 265.918 219.335,265.469 220.007,265.469 220.415 C 265.469 220.941,265.178 221.158,264.471 221.158 C 263.850 221.158,263.473 221.384,263.473 221.756 C 263.473 222.283,259.991 222.355,234.531 222.355 L 205.589 222.355 205.589 230.539 L 205.589 238.723 234.531 238.723 C 253.560 238.723,263.473 238.586,263.473 238.323 C 263.473 238.101,264.542 237.924,265.881 237.924 C 267.653 237.924,268.349 237.766,268.518 237.325 C 268.645 236.996,269.178 236.727,269.703 236.727 C 270.286 236.727,270.659 236.493,270.659 236.128 C 270.659 235.755,271.036 235.529,271.657 235.529 C 272.206 235.529,272.655 235.349,272.655 235.130 C 272.655 234.910,273.104 234.731,273.653 234.731 C 274.274 234.731,274.651 234.504,274.651 234.132 C 274.651 233.802,274.843 233.533,275.078 233.533 C 275.631 233.533,276.647 232.517,276.647 231.965 C 276.647 231.729,276.820 231.537,277.032 231.537 C 277.752 231.537,279.840 229.172,279.840 228.357 C 279.840 227.901,280.103 227.545,280.439 227.545 C 280.812 227.545,281.038 227.168,281.038 226.547 C 281.038 225.998,281.218 225.549,281.437 225.549 C 281.657 225.549,281.836 225.010,281.836 224.351 C 281.836 223.553,282.036 223.154,282.435 223.154 C 282.948 223.154,283.034 221.978,283.034 214.970 C 283.034 207.962,282.948 206.786,282.435 206.786 C 282.019 206.786,281.836 206.368,281.836 205.413 C 281.836 204.657,281.657 203.928,281.437 203.792 C 281.218 203.657,281.038 203.222,281.038 202.827 C 281.038 202.431,280.589 201.771,280.040 201.358 C 279.491 200.946,279.042 200.382,279.042 200.105 C 279.042 199.828,278.772 199.601,278.443 199.601 C 278.071 199.601,277.844 199.224,277.844 198.603 C 277.844 197.804,277.645 197.605,276.846 197.605 C 276.225 197.605,275.848 197.379,275.848 197.006 C 275.848 196.677,275.621 196.407,275.344 196.407 C 275.067 196.407,274.503 195.958,274.091 195.409 C 273.662 194.838,272.938 194.411,272.399 194.411 C 271.881 194.411,271.457 194.232,271.457 194.012 C 271.457 193.792,271.008 193.613,270.459 193.613 C 269.838 193.613,269.461 193.387,269.461 193.014 C 269.461 192.562,268.973 192.415,267.465 192.415 C 265.957 192.415,265.469 192.269,265.469 191.816 C 265.469 191.292,263.029 191.218,245.908 191.218 C 233.134 191.218,226.347 191.079,226.347 190.818 C 226.347 190.599,225.898 190.419,225.349 190.419 C 224.728 190.419,224.351 190.193,224.351 189.820 C 224.351 189.491,224.148 189.222,223.899 189.222 C 223.307 189.222,221.956 187.653,221.956 186.965 C 221.956 186.669,221.776 186.427,221.557 186.427 C 221.326 186.427,221.158 185.154,221.158 183.407 L 221.158 180.387 223.359 178.220 L 225.561 176.054 251.004 175.951 L 276.447 175.848 276.556 168.164 L 276.664 160.479 248.911 160.479 C 230.675 160.479,221.158 160.616,221.158 160.878 M0.000 235.700 C 0.000 252.017,0.075 254.309,0.627 254.862 C 1.179 255.413,3.402 255.488,19.090 255.482 L 36.926 255.475 37.824 254.528 L 38.723 253.580 38.723 235.373 L 38.723 217.166 19.361 217.166 L 0.000 217.166 0.000 235.700 M362.475 236.078 L 362.475 254.990 363.723 255.240 C 364.409 255.377,372.852 255.489,382.485 255.489 L 400.000 255.489 400.000 236.327 L 400.000 217.166 381.238 217.166 L 362.475 217.166 362.475 236.078 M-0.000 344.308 L 0.000 399.202 55.493 399.202 L 110.986 399.202 110.882 380.539 L 110.778 361.876 74.753 361.774 L 38.727 361.672 38.625 325.647 L 38.523 289.621 19.261 289.517 L -0.000 289.413 -0.000 344.308 M362.475 325.549 L 362.475 361.677 326.347 361.677 L 290.220 361.677 290.220 380.439 L 290.220 399.202 345.110 399.202 L 400.000 399.202 400.000 344.311 L 400.000 289.421 381.238 289.421 L 362.475 289.421 362.475 325.549 M144.910 380.439 L 144.910 399.202 163.872 399.202 L 182.834 399.202 182.834 380.439 L 182.834 361.677 163.872 361.677 L 144.910 361.677 144.910 380.439 M217.964 362.272 C 217.964 362.603,217.784 362.874,217.565 362.874 C 217.305 362.874,217.166 369.195,217.166 381.038 L 217.166 399.202 236.730 399.202 L 256.295 399.202 256.192 380.539 L 256.088 361.876 237.026 361.773 C 220.248 361.681,217.964 361.741,217.964 362.272 " stroke="none" fill="#ffffff" fill-rule="evenodd"></path><path id="path3" d="M0.000 54.894 L 0.000 109.788 19.261 109.684 L 38.523 109.581 38.625 73.555 L 38.727 37.529 74.753 37.427 L 110.778 37.325 110.882 18.663 L 110.986 0.000 55.493 0.000 L 0.000 0.000 0.000 54.894 M144.910 18.762 L 144.910 37.525 163.872 37.525 L 182.834 37.525 182.834 18.762 L 182.834 0.000 163.872 0.000 L 144.910 0.000 144.910 18.762 M217.166 18.164 C 217.166 30.007,217.305 36.327,217.565 36.327 C 217.784 36.327,217.964 36.599,217.964 36.930 C 217.964 37.460,220.248 37.520,237.026 37.429 L 256.088 37.325 256.192 18.663 L 256.295 0.000 236.730 0.000 L 217.166 0.000 217.166 18.164 M290.220 18.762 L 290.220 37.525 326.347 37.525 L 362.475 37.525 362.475 73.653 L 362.475 109.780 381.238 109.780 L 400.000 109.780 400.000 54.890 L 400.000 0.000 345.110 0.000 L 290.220 0.000 290.220 18.762 M0.627 144.340 C 0.075 144.892,0.000 147.184,0.000 163.502 L 0.000 182.036 19.361 182.036 L 38.723 182.036 38.716 163.772 L 38.709 145.509 37.761 144.611 L 36.814 143.713 19.034 143.713 C 3.403 143.713,1.179 143.788,0.627 144.340 M363.373 143.994 L 362.475 144.167 362.475 163.102 L 362.475 182.036 381.238 182.036 L 400.000 182.036 400.000 162.874 L 400.000 143.713 382.136 143.767 C 372.310 143.797,363.867 143.899,363.373 143.994 M132.535 160.878 C 132.535 161.098,132.086 161.277,131.537 161.277 C 130.916 161.277,130.539 161.504,130.539 161.876 C 130.539 162.249,130.162 162.475,129.541 162.475 C 128.920 162.475,128.543 162.701,128.543 163.074 C 128.543 163.403,128.273 163.673,127.944 163.673 C 127.615 163.673,127.345 163.852,127.345 164.072 C 127.345 164.291,126.896 164.471,126.347 164.471 C 125.726 164.471,125.349 164.697,125.349 165.070 C 125.349 165.399,125.145 165.669,124.894 165.669 C 124.223 165.669,123.381 166.934,123.366 167.964 C 123.359 168.458,123.161 168.862,122.926 168.862 C 122.145 168.862,121.311 170.033,121.081 171.453 C 120.956 172.224,120.697 172.854,120.507 172.854 C 120.316 172.854,120.160 174.182,120.160 175.806 C 120.160 178.066,120.019 178.811,119.558 178.988 C 119.029 179.191,118.969 182.762,119.059 208.871 L 119.162 238.523 127.117 238.631 C 133.214 238.715,135.147 238.621,135.394 238.232 C 135.571 237.953,135.719 224.296,135.722 207.884 C 135.726 188.261,135.865 178.044,136.128 178.044 C 136.347 178.044,136.527 177.774,136.527 177.445 C 136.527 177.116,136.796 176.846,137.126 176.846 C 137.455 176.846,137.725 176.667,137.725 176.447 C 137.725 176.187,144.178 176.048,156.287 176.048 C 168.397 176.048,174.850 176.187,174.850 176.447 C 174.850 176.667,175.299 176.846,175.848 176.846 C 176.469 176.846,176.846 177.073,176.846 177.445 C 176.846 177.774,177.026 178.044,177.246 178.044 C 178.219 178.044,180.838 181.255,180.838 182.448 C 180.838 183.155,181.087 183.753,181.437 183.888 C 181.933 184.078,182.036 185.164,182.036 190.220 C 182.036 195.275,181.933 196.361,181.437 196.552 C 181.108 196.678,180.833 197.101,180.826 197.492 C 180.810 198.366,179.915 199.601,179.297 199.601 C 179.047 199.601,178.842 199.793,178.842 200.029 C 178.842 200.581,177.827 201.597,177.274 201.597 C 177.039 201.597,176.846 201.866,176.846 202.196 C 176.846 202.628,176.403 202.794,175.250 202.794 C 174.371 202.794,173.653 202.972,173.653 203.189 C 173.653 203.442,167.371 203.622,156.188 203.688 L 138.723 203.792 138.614 211.477 L 138.506 219.162 158.674 219.162 C 171.693 219.162,178.842 219.022,178.842 218.767 C 178.842 218.550,179.561 218.258,180.439 218.117 C 181.317 217.977,182.036 217.705,182.036 217.514 C 182.036 217.322,182.485 217.166,183.034 217.166 C 183.655 217.166,184.032 216.939,184.032 216.567 C 184.032 216.194,184.409 215.968,185.030 215.968 C 185.579 215.968,186.028 215.788,186.028 215.569 C 186.028 215.349,186.477 215.170,187.026 215.170 C 187.647 215.170,188.024 214.943,188.024 214.571 C 188.024 214.242,188.216 213.972,188.452 213.972 C 189.004 213.972,190.020 212.956,190.020 212.404 C 190.020 212.169,190.289 211.976,190.619 211.976 C 190.948 211.976,191.218 211.707,191.218 211.377 C 191.218 211.048,191.410 210.778,191.645 210.778 C 192.198 210.778,193.214 209.763,193.214 209.210 C 193.214 208.975,193.483 208.782,193.812 208.782 C 194.185 208.782,194.411 208.405,194.411 207.784 C 194.411 207.236,194.591 206.786,194.810 206.786 C 195.030 206.786,195.210 206.337,195.210 205.788 C 195.210 205.167,195.436 204.790,195.808 204.790 C 196.229 204.790,196.407 204.366,196.407 203.365 C 196.407 202.581,196.677 201.670,197.006 201.340 C 197.438 200.909,197.605 199.857,197.605 197.576 C 197.605 195.732,197.771 194.411,198.004 194.411 C 198.247 194.411,198.403 192.615,198.403 189.820 C 198.403 187.295,198.242 185.230,198.045 185.230 C 197.848 185.230,197.623 183.672,197.545 181.769 C 197.450 179.469,197.236 178.254,196.905 178.143 C 196.631 178.052,196.407 177.543,196.407 177.013 C 196.407 176.421,196.175 176.048,195.808 176.048 C 195.376 176.048,195.210 175.604,195.210 174.451 C 195.210 173.573,195.030 172.854,194.810 172.854 C 194.591 172.854,194.411 172.585,194.411 172.255 C 194.411 171.926,194.142 171.657,193.812 171.657 C 193.476 171.657,193.214 171.300,193.214 170.845 C 193.214 170.029,191.126 167.665,190.405 167.665 C 190.193 167.665,190.020 167.472,190.020 167.237 C 190.020 166.684,189.004 165.669,188.452 165.669 C 188.216 165.669,188.024 165.464,188.024 165.214 C 188.024 164.614,186.798 163.701,185.971 163.685 C 185.610 163.678,185.212 163.403,185.085 163.074 C 184.959 162.745,184.420 162.475,183.888 162.475 C 183.355 162.475,182.816 162.206,182.690 161.876 C 182.557 161.530,181.960 161.277,181.274 161.277 C 180.621 161.277,179.976 161.098,179.840 160.878 C 179.680 160.619,171.320 160.479,156.064 160.479 C 140.644 160.479,132.535 160.617,132.535 160.878 M221.158 160.878 C 221.158 161.098,220.523 161.277,219.748 161.277 C 218.863 161.277,218.253 161.500,218.108 161.876 C 217.982 162.206,217.449 162.475,216.923 162.475 C 216.340 162.475,215.968 162.708,215.968 163.074 C 215.968 163.446,215.591 163.673,214.970 163.673 C 214.421 163.673,213.972 163.852,213.972 164.072 C 213.972 164.291,213.703 164.471,213.373 164.471 C 213.044 164.471,212.774 164.664,212.774 164.899 C 212.774 165.451,211.759 166.467,211.206 166.467 C 210.971 166.467,210.778 166.737,210.778 167.066 C 210.778 167.395,210.599 167.665,210.379 167.665 C 210.160 167.665,209.980 167.934,209.980 168.263 C 209.980 168.593,209.711 168.862,209.381 168.862 C 209.009 168.862,208.782 169.239,208.782 169.860 C 208.782 170.481,208.556 170.858,208.184 170.858 C 207.811 170.858,207.585 171.235,207.585 171.856 C 207.585 172.405,207.405 172.854,207.186 172.854 C 206.966 172.854,206.786 173.284,206.786 173.810 C 206.786 174.335,206.517 174.868,206.188 174.995 C 205.720 175.174,205.589 175.971,205.589 178.630 C 205.589 180.635,205.425 182.036,205.190 182.036 C 204.970 182.036,204.790 182.754,204.790 183.633 C 204.790 184.511,204.970 185.230,205.190 185.230 C 205.420 185.230,205.589 186.494,205.589 188.224 C 205.589 190.619,205.709 191.218,206.188 191.218 C 206.620 191.218,206.786 191.661,206.786 192.814 C 206.786 193.693,206.966 194.411,207.186 194.411 C 207.405 194.411,207.585 194.860,207.585 195.409 C 207.585 196.030,207.811 196.407,208.184 196.407 C 208.556 196.407,208.782 196.784,208.782 197.405 C 208.782 198.026,209.009 198.403,209.381 198.403 C 209.711 198.403,209.980 198.591,209.980 198.821 C 209.980 199.495,213.424 202.794,214.128 202.794 C 214.481 202.794,214.770 202.974,214.770 203.194 C 214.770 203.413,215.021 203.593,215.327 203.593 C 215.632 203.593,215.986 203.862,216.112 204.192 C 216.257 204.567,216.867 204.790,217.752 204.790 C 218.527 204.790,219.162 204.970,219.162 205.190 C 219.162 205.409,219.880 205.589,220.758 205.589 C 221.912 205.589,222.355 205.755,222.355 206.188 C 222.355 206.712,224.795 206.786,241.916 206.786 C 259.037 206.786,261.477 206.861,261.477 207.385 C 261.477 207.803,261.898 207.984,262.874 207.984 C 263.643 207.984,264.271 208.164,264.271 208.383 C 264.271 208.603,264.541 208.782,264.870 208.782 C 265.200 208.782,265.469 209.052,265.469 209.381 C 265.469 209.711,265.739 209.980,266.068 209.980 C 266.440 209.980,266.667 210.357,266.667 210.978 C 266.667 211.527,266.846 211.976,267.066 211.976 C 268.052 211.976,267.522 218.131,266.467 218.923 C 265.918 219.335,265.469 220.007,265.469 220.415 C 265.469 220.941,265.178 221.158,264.471 221.158 C 263.850 221.158,263.473 221.384,263.473 221.756 C 263.473 222.283,259.991 222.355,234.531 222.355 L 205.589 222.355 205.589 230.539 L 205.589 238.723 234.531 238.723 C 253.560 238.723,263.473 238.586,263.473 238.323 C 263.473 238.101,264.542 237.924,265.881 237.924 C 267.653 237.924,268.349 237.766,268.518 237.325 C 268.645 236.996,269.178 236.727,269.703 236.727 C 270.286 236.727,270.659 236.493,270.659 236.128 C 270.659 235.755,271.036 235.529,271.657 235.529 C 272.206 235.529,272.655 235.349,272.655 235.130 C 272.655 234.910,273.104 234.731,273.653 234.731 C 274.274 234.731,274.651 234.504,274.651 234.132 C 274.651 233.802,274.843 233.533,275.078 233.533 C 275.631 233.533,276.647 232.517,276.647 231.965 C 276.647 231.729,276.820 231.537,277.032 231.537 C 277.752 231.537,279.840 229.172,279.840 228.357 C 279.840 227.901,280.103 227.545,280.439 227.545 C 280.812 227.545,281.038 227.168,281.038 226.547 C 281.038 225.998,281.218 225.549,281.437 225.549 C 281.657 225.549,281.836 225.010,281.836 224.351 C 281.836 223.553,282.036 223.154,282.435 223.154 C 282.948 223.154,283.034 221.978,283.034 214.970 C 283.034 207.962,282.948 206.786,282.435 206.786 C 282.019 206.786,281.836 206.368,281.836 205.413 C 281.836 204.657,281.657 203.928,281.437 203.792 C 281.218 203.657,281.038 203.222,281.038 202.827 C 281.038 202.431,280.589 201.771,280.040 201.358 C 279.491 200.946,279.042 200.382,279.042 200.105 C 279.042 199.828,278.772 199.601,278.443 199.601 C 278.071 199.601,277.844 199.224,277.844 198.603 C 277.844 197.804,277.645 197.605,276.846 197.605 C 276.225 197.605,275.848 197.379,275.848 197.006 C 275.848 196.677,275.621 196.407,275.344 196.407 C 275.067 196.407,274.503 195.958,274.091 195.409 C 273.662 194.838,272.938 194.411,272.399 194.411 C 271.881 194.411,271.457 194.232,271.457 194.012 C 271.457 193.792,271.008 193.613,270.459 193.613 C 269.838 193.613,269.461 193.387,269.461 193.014 C 269.461 192.562,268.973 192.415,267.465 192.415 C 265.957 192.415,265.469 192.269,265.469 191.816 C 265.469 191.292,263.029 191.218,245.908 191.218 C 233.134 191.218,226.347 191.079,226.347 190.818 C 226.347 190.599,225.898 190.419,225.349 190.419 C 224.728 190.419,224.351 190.193,224.351 189.820 C 224.351 189.491,224.148 189.222,223.899 189.222 C 223.307 189.222,221.956 187.653,221.956 186.965 C 221.956 186.669,221.776 186.427,221.557 186.427 C 221.326 186.427,221.158 185.154,221.158 183.407 L 221.158 180.387 223.359 178.220 L 225.561 176.054 251.004 175.951 L 276.447 175.848 276.556 168.164 L 276.664 160.479 248.911 160.479 C 230.675 160.479,221.158 160.616,221.158 160.878 M0.000 235.700 C 0.000 252.017,0.075 254.309,0.627 254.862 C 1.179 255.413,3.402 255.488,19.090 255.482 L 36.926 255.475 37.824 254.528 L 38.723 253.580 38.723 235.373 L 38.723 217.166 19.361 217.166 L 0.000 217.166 0.000 235.700 M362.475 236.078 L 362.475 254.990 363.723 255.240 C 364.409 255.377,372.852 255.489,382.485 255.489 L 400.000 255.489 400.000 236.327 L 400.000 217.166 381.238 217.166 L 362.475 217.166 362.475 236.078 M-0.000 344.308 L 0.000 399.202 55.493 399.202 L 110.986 399.202 110.882 380.539 L 110.778 361.876 74.753 361.774 L 38.727 361.672 38.625 325.647 L 38.523 289.621 19.261 289.517 L -0.000 289.413 -0.000 344.308 M362.475 325.549 L 362.475 361.677 326.347 361.677 L 290.220 361.677 290.220 380.439 L 290.220 399.202 345.110 399.202 L 400.000 399.202 400.000 344.311 L 400.000 289.421 381.238 289.421 L 362.475 289.421 362.475 325.549 M144.910 380.439 L 144.910 399.202 163.872 399.202 L 182.834 399.202 182.834 380.439 L 182.834 361.677 163.872 361.677 L 144.910 361.677 144.910 380.439 M217.964 362.272 C 217.964 362.603,217.784 362.874,217.565 362.874 C 217.305 362.874,217.166 369.195,217.166 381.038 L 217.166 399.202 236.730 399.202 L 256.295 399.202 256.192 380.539 L 256.088 361.876 237.026 361.773 C 220.248 361.681,217.964 361.741,217.964 362.272 " stroke="none" fill="#ffffff" fill-rule="evenodd"></path><path id="path4" d="M0.000 54.894 L 0.000 109.788 19.261 109.684 L 38.523 109.581 38.625 73.555 L 38.727 37.529 74.753 37.427 L 110.778 37.325 110.882 18.663 L 110.986 0.000 55.493 0.000 L 0.000 0.000 0.000 54.894 M144.910 18.762 L 144.910 37.525 163.872 37.525 L 182.834 37.525 182.834 18.762 L 182.834 0.000 163.872 0.000 L 144.910 0.000 144.910 18.762 M217.166 18.164 C 217.166 30.007,217.305 36.327,217.565 36.327 C 217.784 36.327,217.964 36.599,217.964 36.930 C 217.964 37.460,220.248 37.520,237.026 37.429 L 256.088 37.325 256.192 18.663 L 256.295 0.000 236.730 0.000 L 217.166 0.000 217.166 18.164 M290.220 18.762 L 290.220 37.525 326.347 37.525 L 362.475 37.525 362.475 73.653 L 362.475 109.780 381.238 109.780 L 400.000 109.780 400.000 54.890 L 400.000 0.000 345.110 0.000 L 290.220 0.000 290.220 18.762 M0.627 144.340 C 0.075 144.892,0.000 147.184,0.000 163.502 L 0.000 182.036 19.361 182.036 L 38.723 182.036 38.716 163.772 L 38.709 145.509 37.761 144.611 L 36.814 143.713 19.034 143.713 C 3.403 143.713,1.179 143.788,0.627 144.340 M363.373 143.994 L 362.475 144.167 362.475 163.102 L 362.475 182.036 381.238 182.036 L 400.000 182.036 400.000 162.874 L 400.000 143.713 382.136 143.767 C 372.310 143.797,363.867 143.899,363.373 143.994 M132.535 160.878 C 132.535 161.098,132.086 161.277,131.537 161.277 C 130.916 161.277,130.539 161.504,130.539 161.876 C 130.539 162.249,130.162 162.475,129.541 162.475 C 128.920 162.475,128.543 162.701,128.543 163.074 C 128.543 163.403,128.273 163.673,127.944 163.673 C 127.615 163.673,127.345 163.852,127.345 164.072 C 127.345 164.291,126.896 164.471,126.347 164.471 C 125.726 164.471,125.349 164.697,125.349 165.070 C 125.349 165.399,125.145 165.669,124.894 165.669 C 124.223 165.669,123.381 166.934,123.366 167.964 C 123.359 168.458,123.161 168.862,122.926 168.862 C 122.145 168.862,121.311 170.033,121.081 171.453 C 120.956 172.224,120.697 172.854,120.507 172.854 C 120.316 172.854,120.160 174.182,120.160 175.806 C 120.160 178.066,120.019 178.811,119.558 178.988 C 119.029 179.191,118.969 182.762,119.059 208.871 L 119.162 238.523 127.117 238.631 C 133.214 238.715,135.147 238.621,135.394 238.232 C 135.571 237.953,135.719 224.296,135.722 207.884 C 135.726 188.261,135.865 178.044,136.128 178.044 C 136.347 178.044,136.527 177.774,136.527 177.445 C 136.527 177.116,136.796 176.846,137.126 176.846 C 137.455 176.846,137.725 176.667,137.725 176.447 C 137.725 176.187,144.178 176.048,156.287 176.048 C 168.397 176.048,174.850 176.187,174.850 176.447 C 174.850 176.667,175.299 176.846,175.848 176.846 C 176.469 176.846,176.846 177.073,176.846 177.445 C 176.846 177.774,177.026 178.044,177.246 178.044 C 178.219 178.044,180.838 181.255,180.838 182.448 C 180.838 183.155,181.087 183.753,181.437 183.888 C 181.933 184.078,182.036 185.164,182.036 190.220 C 182.036 195.275,181.933 196.361,181.437 196.552 C 181.108 196.678,180.833 197.101,180.826 197.492 C 180.810 198.366,179.915 199.601,179.297 199.601 C 179.047 199.601,178.842 199.793,178.842 200.029 C 178.842 200.581,177.827 201.597,177.274 201.597 C 177.039 201.597,176.846 201.866,176.846 202.196 C 176.846 202.628,176.403 202.794,175.250 202.794 C 174.371 202.794,173.653 202.972,173.653 203.189 C 173.653 203.442,167.371 203.622,156.188 203.688 L 138.723 203.792 138.614 211.477 L 138.506 219.162 158.674 219.162 C 171.693 219.162,178.842 219.022,178.842 218.767 C 178.842 218.550,179.561 218.258,180.439 218.117 C 181.317 217.977,182.036 217.705,182.036 217.514 C 182.036 217.322,182.485 217.166,183.034 217.166 C 183.655 217.166,184.032 216.939,184.032 216.567 C 184.032 216.194,184.409 215.968,185.030 215.968 C 185.579 215.968,186.028 215.788,186.028 215.569 C 186.028 215.349,186.477 215.170,187.026 215.170 C 187.647 215.170,188.024 214.943,188.024 214.571 C 188.024 214.242,188.216 213.972,188.452 213.972 C 189.004 213.972,190.020 212.956,190.020 212.404 C 190.020 212.169,190.289 211.976,190.619 211.976 C 190.948 211.976,191.218 211.707,191.218 211.377 C 191.218 211.048,191.410 210.778,191.645 210.778 C 192.198 210.778,193.214 209.763,193.214 209.210 C 193.214 208.975,193.483 208.782,193.812 208.782 C 194.185 208.782,194.411 208.405,194.411 207.784 C 194.411 207.236,194.591 206.786,194.810 206.786 C 195.030 206.786,195.210 206.337,195.210 205.788 C 195.210 205.167,195.436 204.790,195.808 204.790 C 196.229 204.790,196.407 204.366,196.407 203.365 C 196.407 202.581,196.677 201.670,197.006 201.340 C 197.438 200.909,197.605 199.857,197.605 197.576 C 197.605 195.732,197.771 194.411,198.004 194.411 C 198.247 194.411,198.403 192.615,198.403 189.820 C 198.403 187.295,198.242 185.230,198.045 185.230 C 197.848 185.230,197.623 183.672,197.545 181.769 C 197.450 179.469,197.236 178.254,196.905 178.143 C 196.631 178.052,196.407 177.543,196.407 177.013 C 196.407 176.421,196.175 176.048,195.808 176.048 C 195.376 176.048,195.210 175.604,195.210 174.451 C 195.210 173.573,195.030 172.854,194.810 172.854 C 194.591 172.854,194.411 172.585,194.411 172.255 C 194.411 171.926,194.142 171.657,193.812 171.657 C 193.476 171.657,193.214 171.300,193.214 170.845 C 193.214 170.029,191.126 167.665,190.405 167.665 C 190.193 167.665,190.020 167.472,190.020 167.237 C 190.020 166.684,189.004 165.669,188.452 165.669 C 188.216 165.669,188.024 165.464,188.024 165.214 C 188.024 164.614,186.798 163.701,185.971 163.685 C 185.610 163.678,185.212 163.403,185.085 163.074 C 184.959 162.745,184.420 162.475,183.888 162.475 C 183.355 162.475,182.816 162.206,182.690 161.876 C 182.557 161.530,181.960 161.277,181.274 161.277 C 180.621 161.277,179.976 161.098,179.840 160.878 C 179.680 160.619,171.320 160.479,156.064 160.479 C 140.644 160.479,132.535 160.617,132.535 160.878 M221.158 160.878 C 221.158 161.098,220.523 161.277,219.748 161.277 C 218.863 161.277,218.253 161.500,218.108 161.876 C 217.982 162.206,217.449 162.475,216.923 162.475 C 216.340 162.475,215.968 162.708,215.968 163.074 C 215.968 163.446,215.591 163.673,214.970 163.673 C 214.421 163.673,213.972 163.852,213.972 164.072 C 213.972 164.291,213.703 164.471,213.373 164.471 C 213.044 164.471,212.774 164.664,212.774 164.899 C 212.774 165.451,211.759 166.467,211.206 166.467 C 210.971 166.467,210.778 166.737,210.778 167.066 C 210.778 167.395,210.599 167.665,210.379 167.665 C 210.160 167.665,209.980 167.934,209.980 168.263 C 209.980 168.593,209.711 168.862,209.381 168.862 C 209.009 168.862,208.782 169.239,208.782 169.860 C 208.782 170.481,208.556 170.858,208.184 170.858 C 207.811 170.858,207.585 171.235,207.585 171.856 C 207.585 172.405,207.405 172.854,207.186 172.854 C 206.966 172.854,206.786 173.284,206.786 173.810 C 206.786 174.335,206.517 174.868,206.188 174.995 C 205.720 175.174,205.589 175.971,205.589 178.630 C 205.589 180.635,205.425 182.036,205.190 182.036 C 204.970 182.036,204.790 182.754,204.790 183.633 C 204.790 184.511,204.970 185.230,205.190 185.230 C 205.420 185.230,205.589 186.494,205.589 188.224 C 205.589 190.619,205.709 191.218,206.188 191.218 C 206.620 191.218,206.786 191.661,206.786 192.814 C 206.786 193.693,206.966 194.411,207.186 194.411 C 207.405 194.411,207.585 194.860,207.585 195.409 C 207.585 196.030,207.811 196.407,208.184 196.407 C 208.556 196.407,208.782 196.784,208.782 197.405 C 208.782 198.026,209.009 198.403,209.381 198.403 C 209.711 198.403,209.980 198.591,209.980 198.821 C 209.980 199.495,213.424 202.794,214.128 202.794 C 214.481 202.794,214.770 202.974,214.770 203.194 C 214.770 203.413,215.021 203.593,215.327 203.593 C 215.632 203.593,215.986 203.862,216.112 204.192 C 216.257 204.567,216.867 204.790,217.752 204.790 C 218.527 204.790,219.162 204.970,219.162 205.190 C 219.162 205.409,219.880 205.589,220.758 205.589 C 221.912 205.589,222.355 205.755,222.355 206.188 C 222.355 206.712,224.795 206.786,241.916 206.786 C 259.037 206.786,261.477 206.861,261.477 207.385 C 261.477 207.803,261.898 207.984,262.874 207.984 C 263.643 207.984,264.271 208.164,264.271 208.383 C 264.271 208.603,264.541 208.782,264.870 208.782 C 265.200 208.782,265.469 209.052,265.469 209.381 C 265.469 209.711,265.739 209.980,266.068 209.980 C 266.440 209.980,266.667 210.357,266.667 210.978 C 266.667 211.527,266.846 211.976,267.066 211.976 C 268.052 211.976,267.522 218.131,266.467 218.923 C 265.918 219.335,265.469 220.007,265.469 220.415 C 265.469 220.941,265.178 221.158,264.471 221.158 C 263.850 221.158,263.473 221.384,263.473 221.756 C 263.473 222.283,259.991 222.355,234.531 222.355 L 205.589 222.355 205.589 230.539 L 205.589 238.723 234.531 238.723 C 253.560 238.723,263.473 238.586,263.473 238.323 C 263.473 238.101,264.542 237.924,265.881 237.924 C 267.653 237.924,268.349 237.766,268.518 237.325 C 268.645 236.996,269.178 236.727,269.703 236.727 C 270.286 236.727,270.659 236.493,270.659 236.128 C 270.659 235.755,271.036 235.529,271.657 235.529 C 272.206 235.529,272.655 235.349,272.655 235.130 C 272.655 234.910,273.104 234.731,273.653 234.731 C 274.274 234.731,274.651 234.504,274.651 234.132 C 274.651 233.802,274.843 233.533,275.078 233.533 C 275.631 233.533,276.647 232.517,276.647 231.965 C 276.647 231.729,276.820 231.537,277.032 231.537 C 277.752 231.537,279.840 229.172,279.840 228.357 C 279.840 227.901,280.103 227.545,280.439 227.545 C 280.812 227.545,281.038 227.168,281.038 226.547 C 281.038 225.998,281.218 225.549,281.437 225.549 C 281.657 225.549,281.836 225.010,281.836 224.351 C 281.836 223.553,282.036 223.154,282.435 223.154 C 282.948 223.154,283.034 221.978,283.034 214.970 C 283.034 207.962,282.948 206.786,282.435 206.786 C 282.019 206.786,281.836 206.368,281.836 205.413 C 281.836 204.657,281.657 203.928,281.437 203.792 C 281.218 203.657,281.038 203.222,281.038 202.827 C 281.038 202.431,280.589 201.771,280.040 201.358 C 279.491 200.946,279.042 200.382,279.042 200.105 C 279.042 199.828,278.772 199.601,278.443 199.601 C 278.071 199.601,277.844 199.224,277.844 198.603 C 277.844 197.804,277.645 197.605,276.846 197.605 C 276.225 197.605,275.848 197.379,275.848 197.006 C 275.848 196.677,275.621 196.407,275.344 196.407 C 275.067 196.407,274.503 195.958,274.091 195.409 C 273.662 194.838,272.938 194.411,272.399 194.411 C 271.881 194.411,271.457 194.232,271.457 194.012 C 271.457 193.792,271.008 193.613,270.459 193.613 C 269.838 193.613,269.461 193.387,269.461 193.014 C 269.461 192.562,268.973 192.415,267.465 192.415 C 265.957 192.415,265.469 192.269,265.469 191.816 C 265.469 191.292,263.029 191.218,245.908 191.218 C 233.134 191.218,226.347 191.079,226.347 190.818 C 226.347 190.599,225.898 190.419,225.349 190.419 C 224.728 190.419,224.351 190.193,224.351 189.820 C 224.351 189.491,224.148 189.222,223.899 189.222 C 223.307 189.222,221.956 187.653,221.956 186.965 C 221.956 186.669,221.776 186.427,221.557 186.427 C 221.326 186.427,221.158 185.154,221.158 183.407 L 221.158 180.387 223.359 178.220 L 225.561 176.054 251.004 175.951 L 276.447 175.848 276.556 168.164 L 276.664 160.479 248.911 160.479 C 230.675 160.479,221.158 160.616,221.158 160.878 M0.000 235.700 C 0.000 252.017,0.075 254.309,0.627 254.862 C 1.179 255.413,3.402 255.488,19.090 255.482 L 36.926 255.475 37.824 254.528 L 38.723 253.580 38.723 235.373 L 38.723 217.166 19.361 217.166 L 0.000 217.166 0.000 235.700 M362.475 236.078 L 362.475 254.990 363.723 255.240 C 364.409 255.377,372.852 255.489,382.485 255.489 L 400.000 255.489 400.000 236.327 L 400.000 217.166 381.238 217.166 L 362.475 217.166 362.475 236.078 M-0.000 344.308 L 0.000 399.202 55.493 399.202 L 110.986 399.202 110.882 380.539 L 110.778 361.876 74.753 361.774 L 38.727 361.672 38.625 325.647 L 38.523 289.621 19.261 289.517 L -0.000 289.413 -0.000 344.308 M362.475 325.549 L 362.475 361.677 326.347 361.677 L 290.220 361.677 290.220 380.439 L 290.220 399.202 345.110 399.202 L 400.000 399.202 400.000 344.311 L 400.000 289.421 381.238 289.421 L 362.475 289.421 362.475 325.549 M144.910 380.439 L 144.910 399.202 163.872 399.202 L 182.834 399.202 182.834 380.439 L 182.834 361.677 163.872 361.677 L 144.910 361.677 144.910 380.439 M217.964 362.272 C 217.964 362.603,217.784 362.874,217.565 362.874 C 217.305 362.874,217.166 369.195,217.166 381.038 L 217.166 399.202 236.730 399.202 L 256.295 399.202 256.192 380.539 L 256.088 361.876 237.026 361.773 C 220.248 361.681,217.964 361.741,217.964 362.272 " stroke="none" fill="#ffffff" fill-rule="evenodd"></path></g></svg>